<mxfile host="embed.diagrams.net" modified="2023-11-15T10:36:37.368Z" agent="Mozilla/5.0 (Windows NT 10.0; Win64; x64) AppleWebKit/537.36 (KHTML, like Gecko) Chrome/119.0.0.0 Safari/537.36" etag="VQM4mwaUUhKvhU6BVqEe" version="22.1.1" type="embed">
  <diagram id="Up3j68chnW7Pb4a-ykQh" name="Page-1">
    <mxGraphModel grid="1" page="1" gridSize="10" guides="1" tooltips="1" connect="1" arrows="1" fold="1" pageScale="1" pageWidth="827" pageHeight="1169" math="0" shadow="0">
      <root>
        <mxCell id="0" />
        <mxCell id="1" parent="0" />
        <mxCell id="oH5rCl_RlqWV7XKN1rxS-1" value="&lt;font style=&quot;font-size: 22px;&quot;&gt;Commande initiée (Client)&lt;/font&gt;" style="text;html=1;strokeColor=none;fillColor=none;align=center;verticalAlign=middle;whiteSpace=wrap;rounded=0;" vertex="1" parent="1">
          <mxGeometry x="150" y="80" width="270" height="30" as="geometry" />
        </mxCell>
        <mxCell id="oH5rCl_RlqWV7XKN1rxS-12" value="" style="endArrow=classic;html=1;rounded=0;exitX=0.5;exitY=1;exitDx=0;exitDy=0;entryX=0.5;entryY=0;entryDx=0;entryDy=0;" edge="1" parent="1" source="oH5rCl_RlqWV7XKN1rxS-9" target="oH5rCl_RlqWV7XKN1rxS-21">
          <mxGeometry width="50" height="50" relative="1" as="geometry">
            <mxPoint x="300" y="300" as="sourcePoint" />
            <mxPoint x="243" y="340" as="targetPoint" />
          </mxGeometry>
        </mxCell>
        <mxCell id="oH5rCl_RlqWV7XKN1rxS-13" value="" style="group" connectable="0" vertex="1" parent="1">
          <mxGeometry x="200" y="180" width="170" height="100" as="geometry" />
        </mxCell>
        <mxCell id="oH5rCl_RlqWV7XKN1rxS-5" value="" style="rounded=0;whiteSpace=wrap;html=1;" vertex="1" parent="oH5rCl_RlqWV7XKN1rxS-13">
          <mxGeometry width="170" height="100" as="geometry" />
        </mxCell>
        <mxCell id="oH5rCl_RlqWV7XKN1rxS-6" value="" style="rounded=0;whiteSpace=wrap;html=1;" vertex="1" parent="oH5rCl_RlqWV7XKN1rxS-13">
          <mxGeometry width="170" height="50" as="geometry" />
        </mxCell>
        <mxCell id="oH5rCl_RlqWV7XKN1rxS-7" value="" style="endArrow=none;html=1;rounded=0;exitX=0.5;exitY=1;exitDx=0;exitDy=0;entryX=0.5;entryY=1;entryDx=0;entryDy=0;" edge="1" parent="oH5rCl_RlqWV7XKN1rxS-13" source="oH5rCl_RlqWV7XKN1rxS-5" target="oH5rCl_RlqWV7XKN1rxS-6">
          <mxGeometry width="50" height="50" relative="1" as="geometry">
            <mxPoint x="85" y="80" as="sourcePoint" />
            <mxPoint x="85" y="60" as="targetPoint" />
          </mxGeometry>
        </mxCell>
        <mxCell id="oH5rCl_RlqWV7XKN1rxS-8" value="Sélectionne un produit" style="text;html=1;strokeColor=none;fillColor=none;align=center;verticalAlign=middle;whiteSpace=wrap;rounded=0;" vertex="1" parent="oH5rCl_RlqWV7XKN1rxS-13">
          <mxGeometry width="170" height="50" as="geometry" />
        </mxCell>
        <mxCell id="oH5rCl_RlqWV7XKN1rxS-9" value="Produit valide" style="text;html=1;strokeColor=none;fillColor=none;align=center;verticalAlign=middle;whiteSpace=wrap;rounded=0;" vertex="1" parent="oH5rCl_RlqWV7XKN1rxS-13">
          <mxGeometry y="50" width="85" height="50" as="geometry" />
        </mxCell>
        <mxCell id="oH5rCl_RlqWV7XKN1rxS-10" value="Produit invalide" style="text;html=1;strokeColor=none;fillColor=none;align=center;verticalAlign=middle;whiteSpace=wrap;rounded=0;" vertex="1" parent="oH5rCl_RlqWV7XKN1rxS-13">
          <mxGeometry x="85" y="50" width="85" height="50" as="geometry" />
        </mxCell>
        <mxCell id="oH5rCl_RlqWV7XKN1rxS-11" value="" style="endArrow=classic;html=1;rounded=0;entryX=1;entryY=0.5;entryDx=0;entryDy=0;exitX=0.5;exitY=1;exitDx=0;exitDy=0;" edge="1" parent="oH5rCl_RlqWV7XKN1rxS-13" source="oH5rCl_RlqWV7XKN1rxS-10" target="oH5rCl_RlqWV7XKN1rxS-8">
          <mxGeometry width="50" height="50" relative="1" as="geometry">
            <mxPoint x="120" y="100" as="sourcePoint" />
            <mxPoint x="120" y="140" as="targetPoint" />
            <Array as="points">
              <mxPoint x="128" y="120" />
              <mxPoint x="240" y="120" />
              <mxPoint x="240" y="25" />
            </Array>
          </mxGeometry>
        </mxCell>
        <mxCell id="oH5rCl_RlqWV7XKN1rxS-14" value="" style="group" connectable="0" vertex="1" parent="1">
          <mxGeometry x="115.5" y="598" width="170" height="100" as="geometry" />
        </mxCell>
        <mxCell id="oH5rCl_RlqWV7XKN1rxS-15" value="" style="rounded=0;whiteSpace=wrap;html=1;" vertex="1" parent="oH5rCl_RlqWV7XKN1rxS-14">
          <mxGeometry width="170" height="100" as="geometry" />
        </mxCell>
        <mxCell id="oH5rCl_RlqWV7XKN1rxS-16" value="" style="rounded=0;whiteSpace=wrap;html=1;" vertex="1" parent="oH5rCl_RlqWV7XKN1rxS-14">
          <mxGeometry width="170" height="50" as="geometry" />
        </mxCell>
        <mxCell id="oH5rCl_RlqWV7XKN1rxS-17" value="" style="endArrow=none;html=1;rounded=0;exitX=0.5;exitY=1;exitDx=0;exitDy=0;entryX=0.5;entryY=1;entryDx=0;entryDy=0;" edge="1" parent="oH5rCl_RlqWV7XKN1rxS-14" source="oH5rCl_RlqWV7XKN1rxS-15" target="oH5rCl_RlqWV7XKN1rxS-16">
          <mxGeometry width="50" height="50" relative="1" as="geometry">
            <mxPoint x="85" y="80" as="sourcePoint" />
            <mxPoint x="85" y="60" as="targetPoint" />
          </mxGeometry>
        </mxCell>
        <mxCell id="oH5rCl_RlqWV7XKN1rxS-18" value="Demande si modification" style="text;html=1;strokeColor=none;fillColor=none;align=center;verticalAlign=middle;whiteSpace=wrap;rounded=0;" vertex="1" parent="oH5rCl_RlqWV7XKN1rxS-14">
          <mxGeometry width="170" height="50" as="geometry" />
        </mxCell>
        <mxCell id="oH5rCl_RlqWV7XKN1rxS-19" value="Souhaite modifier" style="text;html=1;strokeColor=none;fillColor=none;align=center;verticalAlign=middle;whiteSpace=wrap;rounded=0;" vertex="1" parent="oH5rCl_RlqWV7XKN1rxS-14">
          <mxGeometry y="50" width="85" height="50" as="geometry" />
        </mxCell>
        <mxCell id="oH5rCl_RlqWV7XKN1rxS-20" value="Ne souhaite pas modifier" style="text;html=1;strokeColor=none;fillColor=none;align=center;verticalAlign=middle;whiteSpace=wrap;rounded=0;" vertex="1" parent="oH5rCl_RlqWV7XKN1rxS-14">
          <mxGeometry x="85" y="50" width="85" height="50" as="geometry" />
        </mxCell>
        <mxCell id="oH5rCl_RlqWV7XKN1rxS-21" value="Produit sélectionné" style="ellipse;whiteSpace=wrap;html=1;" vertex="1" parent="1">
          <mxGeometry x="183.5" y="302" width="120" height="80" as="geometry" />
        </mxCell>
        <mxCell id="oH5rCl_RlqWV7XKN1rxS-23" value="" style="group" connectable="0" vertex="1" parent="1">
          <mxGeometry x="230" y="150" width="110" height="30" as="geometry" />
        </mxCell>
        <mxCell id="oH5rCl_RlqWV7XKN1rxS-2" value="" style="triangle;whiteSpace=wrap;html=1;rotation=90;" vertex="1" parent="oH5rCl_RlqWV7XKN1rxS-23">
          <mxGeometry x="40" y="-40" width="30" height="110" as="geometry" />
        </mxCell>
        <mxCell id="oH5rCl_RlqWV7XKN1rxS-22" value="" style="endArrow=classic;html=1;rounded=0;exitX=0.5;exitY=1;exitDx=0;exitDy=0;entryX=0;entryY=0.5;entryDx=0;entryDy=0;" edge="1" parent="oH5rCl_RlqWV7XKN1rxS-23" source="oH5rCl_RlqWV7XKN1rxS-1" target="oH5rCl_RlqWV7XKN1rxS-2">
          <mxGeometry width="50" height="50" relative="1" as="geometry">
            <mxPoint x="70" y="150" as="sourcePoint" />
            <mxPoint x="120" y="100" as="targetPoint" />
          </mxGeometry>
        </mxCell>
        <mxCell id="oH5rCl_RlqWV7XKN1rxS-24" value="" style="group" connectable="0" vertex="1" parent="1">
          <mxGeometry x="240" y="160" width="110" height="30" as="geometry" />
        </mxCell>
        <mxCell id="oH5rCl_RlqWV7XKN1rxS-25" value="" style="triangle;whiteSpace=wrap;html=1;rotation=90;" vertex="1" parent="1">
          <mxGeometry x="185.5" y="527" width="30" height="110" as="geometry" />
        </mxCell>
        <mxCell id="oH5rCl_RlqWV7XKN1rxS-26" value="" style="endArrow=classic;html=1;rounded=0;exitX=0.5;exitY=1;exitDx=0;exitDy=0;entryX=0;entryY=0.5;entryDx=0;entryDy=0;" edge="1" parent="1" source="oH5rCl_RlqWV7XKN1rxS-21" target="jWbnVODXDdsQWrNIzBra-8">
          <mxGeometry width="50" height="50" relative="1" as="geometry">
            <mxPoint x="311" y="310" as="sourcePoint" />
            <mxPoint x="361" y="260" as="targetPoint" />
          </mxGeometry>
        </mxCell>
        <mxCell id="oH5rCl_RlqWV7XKN1rxS-30" value="" style="endArrow=classic;html=1;rounded=0;exitX=0.5;exitY=1;exitDx=0;exitDy=0;entryX=0.5;entryY=0;entryDx=0;entryDy=0;" edge="1" parent="1" source="oH5rCl_RlqWV7XKN1rxS-19">
          <mxGeometry width="50" height="50" relative="1" as="geometry">
            <mxPoint x="88.5" y="721" as="sourcePoint" />
            <mxPoint x="88" y="742" as="targetPoint" />
          </mxGeometry>
        </mxCell>
        <mxCell id="oH5rCl_RlqWV7XKN1rxS-31" value="Produit sélectionné" style="ellipse;whiteSpace=wrap;html=1;" vertex="1" parent="1">
          <mxGeometry x="28" y="733" width="120" height="80" as="geometry" />
        </mxCell>
        <mxCell id="oH5rCl_RlqWV7XKN1rxS-32" value="" style="triangle;whiteSpace=wrap;html=1;rotation=90;" vertex="1" parent="1">
          <mxGeometry x="73" y="810" width="30" height="110" as="geometry" />
        </mxCell>
        <mxCell id="oH5rCl_RlqWV7XKN1rxS-33" value="" style="endArrow=classic;html=1;rounded=0;exitX=0.5;exitY=1;exitDx=0;exitDy=0;entryX=0;entryY=0.5;entryDx=0;entryDy=0;" edge="1" parent="1" source="oH5rCl_RlqWV7XKN1rxS-31" target="oH5rCl_RlqWV7XKN1rxS-32">
          <mxGeometry width="50" height="50" relative="1" as="geometry">
            <mxPoint x="155.5" y="706" as="sourcePoint" />
            <mxPoint x="205.5" y="656" as="targetPoint" />
          </mxGeometry>
        </mxCell>
        <mxCell id="oH5rCl_RlqWV7XKN1rxS-34" value="" style="group" connectable="0" vertex="1" parent="1">
          <mxGeometry x="2" y="881" width="170" height="100" as="geometry" />
        </mxCell>
        <mxCell id="oH5rCl_RlqWV7XKN1rxS-35" value="" style="rounded=0;whiteSpace=wrap;html=1;" vertex="1" parent="oH5rCl_RlqWV7XKN1rxS-34">
          <mxGeometry width="170" height="100" as="geometry" />
        </mxCell>
        <mxCell id="oH5rCl_RlqWV7XKN1rxS-36" value="" style="rounded=0;whiteSpace=wrap;html=1;" vertex="1" parent="oH5rCl_RlqWV7XKN1rxS-34">
          <mxGeometry width="170" height="50" as="geometry" />
        </mxCell>
        <mxCell id="oH5rCl_RlqWV7XKN1rxS-37" value="" style="endArrow=none;html=1;rounded=0;exitX=0.5;exitY=1;exitDx=0;exitDy=0;entryX=0.5;entryY=1;entryDx=0;entryDy=0;" edge="1" parent="oH5rCl_RlqWV7XKN1rxS-34" source="oH5rCl_RlqWV7XKN1rxS-35" target="oH5rCl_RlqWV7XKN1rxS-36">
          <mxGeometry width="50" height="50" relative="1" as="geometry">
            <mxPoint x="85" y="80" as="sourcePoint" />
            <mxPoint x="85" y="60" as="targetPoint" />
          </mxGeometry>
        </mxCell>
        <mxCell id="oH5rCl_RlqWV7XKN1rxS-38" value="Modifications de la pizza" style="text;html=1;strokeColor=none;fillColor=none;align=center;verticalAlign=middle;whiteSpace=wrap;rounded=0;" vertex="1" parent="oH5rCl_RlqWV7XKN1rxS-34">
          <mxGeometry width="170" height="50" as="geometry" />
        </mxCell>
        <mxCell id="oH5rCl_RlqWV7XKN1rxS-39" value="Modifications invalide" style="text;html=1;strokeColor=none;fillColor=none;align=center;verticalAlign=middle;whiteSpace=wrap;rounded=0;" vertex="1" parent="oH5rCl_RlqWV7XKN1rxS-34">
          <mxGeometry y="50" width="85" height="50" as="geometry" />
        </mxCell>
        <mxCell id="oH5rCl_RlqWV7XKN1rxS-40" value="Modifications valide" style="text;html=1;strokeColor=none;fillColor=none;align=center;verticalAlign=middle;whiteSpace=wrap;rounded=0;" vertex="1" parent="oH5rCl_RlqWV7XKN1rxS-34">
          <mxGeometry x="85" y="50" width="85" height="50" as="geometry" />
        </mxCell>
        <mxCell id="oH5rCl_RlqWV7XKN1rxS-69" value="" style="endArrow=classic;html=1;rounded=0;entryX=0;entryY=0.5;entryDx=0;entryDy=0;exitX=0.5;exitY=1;exitDx=0;exitDy=0;" edge="1" parent="oH5rCl_RlqWV7XKN1rxS-34" source="oH5rCl_RlqWV7XKN1rxS-39" target="oH5rCl_RlqWV7XKN1rxS-38">
          <mxGeometry width="50" height="50" relative="1" as="geometry">
            <mxPoint x="196" y="75" as="sourcePoint" />
            <mxPoint x="246" y="25" as="targetPoint" />
            <Array as="points">
              <mxPoint x="43" y="125" />
              <mxPoint x="-44" y="125" />
              <mxPoint x="-44" y="25" />
            </Array>
          </mxGeometry>
        </mxCell>
        <mxCell id="oH5rCl_RlqWV7XKN1rxS-52" value="" style="endArrow=classic;html=1;rounded=0;exitX=0.5;exitY=1;exitDx=0;exitDy=0;entryX=0.408;entryY=0.038;entryDx=0;entryDy=0;entryPerimeter=0;" edge="1" parent="1" source="oH5rCl_RlqWV7XKN1rxS-20" target="oH5rCl_RlqWV7XKN1rxS-53">
          <mxGeometry width="50" height="50" relative="1" as="geometry">
            <mxPoint x="429.5" y="596" as="sourcePoint" />
            <mxPoint x="290" y="1014" as="targetPoint" />
          </mxGeometry>
        </mxCell>
        <mxCell id="oH5rCl_RlqWV7XKN1rxS-53" value="Ajout au panier" style="ellipse;whiteSpace=wrap;html=1;" vertex="1" parent="1">
          <mxGeometry x="220" y="1010" width="120" height="80" as="geometry" />
        </mxCell>
        <mxCell id="oH5rCl_RlqWV7XKN1rxS-54" value="" style="triangle;whiteSpace=wrap;html=1;rotation=90;" vertex="1" parent="1">
          <mxGeometry x="228.5" y="1096" width="30" height="110" as="geometry" />
        </mxCell>
        <mxCell id="oH5rCl_RlqWV7XKN1rxS-55" value="" style="endArrow=classic;html=1;rounded=0;exitX=0.5;exitY=1;exitDx=0;exitDy=0;entryX=0;entryY=0.5;entryDx=0;entryDy=0;" edge="1" parent="1" source="oH5rCl_RlqWV7XKN1rxS-53" target="oH5rCl_RlqWV7XKN1rxS-54">
          <mxGeometry width="50" height="50" relative="1" as="geometry">
            <mxPoint x="433.5" y="689" as="sourcePoint" />
            <mxPoint x="483.5" y="639" as="targetPoint" />
          </mxGeometry>
        </mxCell>
        <mxCell id="oH5rCl_RlqWV7XKN1rxS-56" value="" style="group" connectable="0" vertex="1" parent="1">
          <mxGeometry x="157.5" y="1167" width="170" height="100" as="geometry" />
        </mxCell>
        <mxCell id="oH5rCl_RlqWV7XKN1rxS-57" value="" style="rounded=0;whiteSpace=wrap;html=1;" vertex="1" parent="oH5rCl_RlqWV7XKN1rxS-56">
          <mxGeometry width="170" height="100" as="geometry" />
        </mxCell>
        <mxCell id="oH5rCl_RlqWV7XKN1rxS-58" value="" style="rounded=0;whiteSpace=wrap;html=1;" vertex="1" parent="oH5rCl_RlqWV7XKN1rxS-56">
          <mxGeometry width="170" height="50" as="geometry" />
        </mxCell>
        <mxCell id="oH5rCl_RlqWV7XKN1rxS-59" value="" style="endArrow=none;html=1;rounded=0;exitX=0.5;exitY=1;exitDx=0;exitDy=0;entryX=0.5;entryY=1;entryDx=0;entryDy=0;" edge="1" parent="oH5rCl_RlqWV7XKN1rxS-56" source="oH5rCl_RlqWV7XKN1rxS-57" target="oH5rCl_RlqWV7XKN1rxS-58">
          <mxGeometry width="50" height="50" relative="1" as="geometry">
            <mxPoint x="85" y="80" as="sourcePoint" />
            <mxPoint x="85" y="60" as="targetPoint" />
          </mxGeometry>
        </mxCell>
        <mxCell id="oH5rCl_RlqWV7XKN1rxS-60" value="Consultation du panier" style="text;html=1;strokeColor=none;fillColor=none;align=center;verticalAlign=middle;whiteSpace=wrap;rounded=0;" vertex="1" parent="oH5rCl_RlqWV7XKN1rxS-56">
          <mxGeometry width="170" height="50" as="geometry" />
        </mxCell>
        <mxCell id="oH5rCl_RlqWV7XKN1rxS-61" value="Continue la commande" style="text;html=1;strokeColor=none;fillColor=none;align=center;verticalAlign=middle;whiteSpace=wrap;rounded=0;" vertex="1" parent="oH5rCl_RlqWV7XKN1rxS-56">
          <mxGeometry y="50" width="85" height="50" as="geometry" />
        </mxCell>
        <mxCell id="oH5rCl_RlqWV7XKN1rxS-62" value="Termine la commande" style="text;html=1;strokeColor=none;fillColor=none;align=center;verticalAlign=middle;whiteSpace=wrap;rounded=0;" vertex="1" parent="oH5rCl_RlqWV7XKN1rxS-56">
          <mxGeometry x="85" y="50" width="85" height="50" as="geometry" />
        </mxCell>
        <mxCell id="oH5rCl_RlqWV7XKN1rxS-67" value="" style="endArrow=classic;html=1;rounded=0;exitX=0.5;exitY=1;exitDx=0;exitDy=0;entryX=0;entryY=0;entryDx=0;entryDy=0;" edge="1" parent="1" source="oH5rCl_RlqWV7XKN1rxS-40" target="oH5rCl_RlqWV7XKN1rxS-53">
          <mxGeometry width="50" height="50" relative="1" as="geometry">
            <mxPoint x="231" y="1056" as="sourcePoint" />
            <mxPoint x="268.57359312880726" y="1021.7157287525381" as="targetPoint" />
          </mxGeometry>
        </mxCell>
        <mxCell id="oH5rCl_RlqWV7XKN1rxS-70" value="" style="endArrow=classic;html=1;rounded=0;exitX=0.5;exitY=1;exitDx=0;exitDy=0;entryX=0;entryY=0.5;entryDx=0;entryDy=0;" edge="1" parent="1" source="oH5rCl_RlqWV7XKN1rxS-61" target="oH5rCl_RlqWV7XKN1rxS-18">
          <mxGeometry width="50" height="50" relative="1" as="geometry">
            <mxPoint x="130" y="1000" as="sourcePoint" />
            <mxPoint x="180" y="950" as="targetPoint" />
            <Array as="points">
              <mxPoint x="200" y="1280" />
              <mxPoint x="-70" y="1280" />
              <mxPoint x="-70" y="623" />
            </Array>
          </mxGeometry>
        </mxCell>
        <mxCell id="oH5rCl_RlqWV7XKN1rxS-71" value="" style="endArrow=classic;html=1;rounded=0;exitX=0.5;exitY=1;exitDx=0;exitDy=0;entryX=0.5;entryY=0;entryDx=0;entryDy=0;" edge="1" parent="1" source="oH5rCl_RlqWV7XKN1rxS-62" target="oH5rCl_RlqWV7XKN1rxS-72">
          <mxGeometry width="50" height="50" relative="1" as="geometry">
            <mxPoint x="320" y="1280" as="sourcePoint" />
            <mxPoint x="285" y="1260" as="targetPoint" />
            <Array as="points" />
          </mxGeometry>
        </mxCell>
        <mxCell id="oH5rCl_RlqWV7XKN1rxS-72" value="Ouverture page de choix paiement" style="ellipse;whiteSpace=wrap;html=1;" vertex="1" parent="1">
          <mxGeometry x="225" y="1310" width="120" height="80" as="geometry" />
        </mxCell>
        <mxCell id="oH5rCl_RlqWV7XKN1rxS-73" value="Passe la commande en ligne" style="ellipse;whiteSpace=wrap;html=1;" vertex="1" parent="1">
          <mxGeometry x="69" y="1310" width="120" height="80" as="geometry" />
        </mxCell>
        <mxCell id="oH5rCl_RlqWV7XKN1rxS-74" value="Passe la commande en borne" style="ellipse;whiteSpace=wrap;html=1;" vertex="1" parent="1">
          <mxGeometry x="380" y="1310" width="120" height="80" as="geometry" />
        </mxCell>
        <mxCell id="oH5rCl_RlqWV7XKN1rxS-76" value="" style="triangle;whiteSpace=wrap;html=1;rotation=90;" vertex="1" parent="1">
          <mxGeometry x="161" y="1480" width="30" height="110" as="geometry" />
        </mxCell>
        <mxCell id="oH5rCl_RlqWV7XKN1rxS-77" value="" style="endArrow=classic;html=1;rounded=0;exitX=0.5;exitY=1;exitDx=0;exitDy=0;entryX=0;entryY=0.5;entryDx=0;entryDy=0;" edge="1" parent="1" source="oH5rCl_RlqWV7XKN1rxS-73" target="oH5rCl_RlqWV7XKN1rxS-76">
          <mxGeometry width="50" height="50" relative="1" as="geometry">
            <mxPoint x="186.5" y="1480" as="sourcePoint" />
            <mxPoint x="426" y="1029" as="targetPoint" />
          </mxGeometry>
        </mxCell>
        <mxCell id="oH5rCl_RlqWV7XKN1rxS-78" value="" style="group" connectable="0" vertex="1" parent="1">
          <mxGeometry x="90" y="1551" width="170" height="100" as="geometry" />
        </mxCell>
        <mxCell id="oH5rCl_RlqWV7XKN1rxS-79" value="" style="rounded=0;whiteSpace=wrap;html=1;" vertex="1" parent="oH5rCl_RlqWV7XKN1rxS-78">
          <mxGeometry width="170" height="100" as="geometry" />
        </mxCell>
        <mxCell id="oH5rCl_RlqWV7XKN1rxS-80" value="" style="rounded=0;whiteSpace=wrap;html=1;" vertex="1" parent="oH5rCl_RlqWV7XKN1rxS-78">
          <mxGeometry width="170" height="50" as="geometry" />
        </mxCell>
        <mxCell id="oH5rCl_RlqWV7XKN1rxS-81" value="" style="endArrow=none;html=1;rounded=0;exitX=0.5;exitY=1;exitDx=0;exitDy=0;entryX=0.5;entryY=1;entryDx=0;entryDy=0;" edge="1" parent="oH5rCl_RlqWV7XKN1rxS-78" source="oH5rCl_RlqWV7XKN1rxS-79" target="oH5rCl_RlqWV7XKN1rxS-80">
          <mxGeometry width="50" height="50" relative="1" as="geometry">
            <mxPoint x="85" y="80" as="sourcePoint" />
            <mxPoint x="85" y="60" as="targetPoint" />
          </mxGeometry>
        </mxCell>
        <mxCell id="oH5rCl_RlqWV7XKN1rxS-82" value="Indiquer adresse de livraison" style="text;html=1;strokeColor=none;fillColor=none;align=center;verticalAlign=middle;whiteSpace=wrap;rounded=0;" vertex="1" parent="oH5rCl_RlqWV7XKN1rxS-78">
          <mxGeometry width="170" height="50" as="geometry" />
        </mxCell>
        <mxCell id="oH5rCl_RlqWV7XKN1rxS-83" value="Adresse invalide" style="text;html=1;strokeColor=none;fillColor=none;align=center;verticalAlign=middle;whiteSpace=wrap;rounded=0;" vertex="1" parent="oH5rCl_RlqWV7XKN1rxS-78">
          <mxGeometry y="50" width="85" height="50" as="geometry" />
        </mxCell>
        <mxCell id="oH5rCl_RlqWV7XKN1rxS-84" value="Adresse valide" style="text;html=1;strokeColor=none;fillColor=none;align=center;verticalAlign=middle;whiteSpace=wrap;rounded=0;" vertex="1" parent="oH5rCl_RlqWV7XKN1rxS-78">
          <mxGeometry x="85" y="50" width="85" height="50" as="geometry" />
        </mxCell>
        <mxCell id="oH5rCl_RlqWV7XKN1rxS-98" value="" style="endArrow=classic;html=1;rounded=0;exitX=0.5;exitY=1;exitDx=0;exitDy=0;entryX=0;entryY=0.5;entryDx=0;entryDy=0;" edge="1" parent="oH5rCl_RlqWV7XKN1rxS-78" source="oH5rCl_RlqWV7XKN1rxS-83" target="oH5rCl_RlqWV7XKN1rxS-82">
          <mxGeometry width="50" height="50" relative="1" as="geometry">
            <mxPoint x="220" y="-111" as="sourcePoint" />
            <mxPoint x="270" y="-161" as="targetPoint" />
            <Array as="points">
              <mxPoint x="43" y="119" />
              <mxPoint x="-30" y="119" />
              <mxPoint x="-30" y="25" />
            </Array>
          </mxGeometry>
        </mxCell>
        <mxCell id="oH5rCl_RlqWV7XKN1rxS-85" value="" style="endArrow=classic;html=1;rounded=0;exitX=0;exitY=1;exitDx=0;exitDy=0;entryX=0;entryY=0.5;entryDx=0;entryDy=0;" edge="1" parent="1" source="oH5rCl_RlqWV7XKN1rxS-72" target="oH5rCl_RlqWV7XKN1rxS-76">
          <mxGeometry width="50" height="50" relative="1" as="geometry">
            <mxPoint x="310" y="1440" as="sourcePoint" />
            <mxPoint x="360" y="1390" as="targetPoint" />
          </mxGeometry>
        </mxCell>
        <mxCell id="oH5rCl_RlqWV7XKN1rxS-86" value="" style="triangle;whiteSpace=wrap;html=1;rotation=90;" vertex="1" parent="1">
          <mxGeometry x="391" y="1480" width="30" height="110" as="geometry" />
        </mxCell>
        <mxCell id="oH5rCl_RlqWV7XKN1rxS-87" value="" style="endArrow=classic;html=1;rounded=0;exitX=0.5;exitY=1;exitDx=0;exitDy=0;entryX=0;entryY=0.5;entryDx=0;entryDy=0;" edge="1" parent="1" source="oH5rCl_RlqWV7XKN1rxS-74" target="oH5rCl_RlqWV7XKN1rxS-86">
          <mxGeometry width="50" height="50" relative="1" as="geometry">
            <mxPoint x="416.5" y="1480" as="sourcePoint" />
            <mxPoint x="656" y="1029" as="targetPoint" />
          </mxGeometry>
        </mxCell>
        <mxCell id="oH5rCl_RlqWV7XKN1rxS-88" value="" style="group" connectable="0" vertex="1" parent="1">
          <mxGeometry x="320" y="1551" width="170" height="100" as="geometry" />
        </mxCell>
        <mxCell id="oH5rCl_RlqWV7XKN1rxS-89" value="" style="rounded=0;whiteSpace=wrap;html=1;" vertex="1" parent="oH5rCl_RlqWV7XKN1rxS-88">
          <mxGeometry width="170" height="100" as="geometry" />
        </mxCell>
        <mxCell id="oH5rCl_RlqWV7XKN1rxS-90" value="" style="rounded=0;whiteSpace=wrap;html=1;" vertex="1" parent="oH5rCl_RlqWV7XKN1rxS-88">
          <mxGeometry width="170" height="50" as="geometry" />
        </mxCell>
        <mxCell id="oH5rCl_RlqWV7XKN1rxS-91" value="" style="endArrow=none;html=1;rounded=0;exitX=0.5;exitY=1;exitDx=0;exitDy=0;entryX=0.5;entryY=1;entryDx=0;entryDy=0;" edge="1" parent="oH5rCl_RlqWV7XKN1rxS-88" source="oH5rCl_RlqWV7XKN1rxS-89" target="oH5rCl_RlqWV7XKN1rxS-90">
          <mxGeometry width="50" height="50" relative="1" as="geometry">
            <mxPoint x="85" y="80" as="sourcePoint" />
            <mxPoint x="85" y="60" as="targetPoint" />
          </mxGeometry>
        </mxCell>
        <mxCell id="oH5rCl_RlqWV7XKN1rxS-92" value="Choix moyen de paiement" style="text;html=1;strokeColor=none;fillColor=none;align=center;verticalAlign=middle;whiteSpace=wrap;rounded=0;" vertex="1" parent="oH5rCl_RlqWV7XKN1rxS-88">
          <mxGeometry width="170" height="50" as="geometry" />
        </mxCell>
        <mxCell id="oH5rCl_RlqWV7XKN1rxS-93" value="A la borne" style="text;html=1;strokeColor=none;fillColor=none;align=center;verticalAlign=middle;whiteSpace=wrap;rounded=0;" vertex="1" parent="oH5rCl_RlqWV7XKN1rxS-88">
          <mxGeometry y="50" width="85" height="50" as="geometry" />
        </mxCell>
        <mxCell id="oH5rCl_RlqWV7XKN1rxS-94" value="Au comptior" style="text;html=1;strokeColor=none;fillColor=none;align=center;verticalAlign=middle;whiteSpace=wrap;rounded=0;" vertex="1" parent="oH5rCl_RlqWV7XKN1rxS-88">
          <mxGeometry x="85" y="50" width="85" height="50" as="geometry" />
        </mxCell>
        <mxCell id="oH5rCl_RlqWV7XKN1rxS-95" value="" style="endArrow=classic;html=1;rounded=0;exitX=1;exitY=1;exitDx=0;exitDy=0;entryX=0;entryY=0.5;entryDx=0;entryDy=0;" edge="1" parent="1" source="oH5rCl_RlqWV7XKN1rxS-72" target="oH5rCl_RlqWV7XKN1rxS-86">
          <mxGeometry width="50" height="50" relative="1" as="geometry">
            <mxPoint x="310" y="1440" as="sourcePoint" />
            <mxPoint x="360" y="1390" as="targetPoint" />
          </mxGeometry>
        </mxCell>
        <mxCell id="oH5rCl_RlqWV7XKN1rxS-96" value="A ET B" style="text;html=1;strokeColor=none;fillColor=none;align=center;verticalAlign=middle;whiteSpace=wrap;rounded=0;" vertex="1" parent="1">
          <mxGeometry x="146" y="1516" width="60" height="30" as="geometry" />
        </mxCell>
        <mxCell id="oH5rCl_RlqWV7XKN1rxS-97" value="&lt;font style=&quot;font-size: 12px;&quot;&gt;(A ET B) OU C&lt;/font&gt;" style="text;html=1;strokeColor=none;fillColor=none;align=center;verticalAlign=middle;whiteSpace=wrap;rounded=0;" vertex="1" parent="1">
          <mxGeometry x="360" y="1515" width="90" height="30" as="geometry" />
        </mxCell>
        <mxCell id="oH5rCl_RlqWV7XKN1rxS-100" value="" style="triangle;whiteSpace=wrap;html=1;rotation=90;" vertex="1" parent="1">
          <mxGeometry x="281" y="1770" width="30" height="110" as="geometry" />
        </mxCell>
        <mxCell id="oH5rCl_RlqWV7XKN1rxS-101" value="" style="endArrow=classic;html=1;rounded=0;exitX=0.5;exitY=1;exitDx=0;exitDy=0;entryX=0.5;entryY=0;entryDx=0;entryDy=0;" edge="1" parent="1" source="oH5rCl_RlqWV7XKN1rxS-93" target="oH5rCl_RlqWV7XKN1rxS-111">
          <mxGeometry width="50" height="50" relative="1" as="geometry">
            <mxPoint x="330" y="1582" as="sourcePoint" />
            <mxPoint x="546" y="1221" as="targetPoint" />
          </mxGeometry>
        </mxCell>
        <mxCell id="oH5rCl_RlqWV7XKN1rxS-102" value="" style="group" connectable="0" vertex="1" parent="1">
          <mxGeometry x="210" y="1841" width="170" height="100" as="geometry" />
        </mxCell>
        <mxCell id="oH5rCl_RlqWV7XKN1rxS-103" value="" style="rounded=0;whiteSpace=wrap;html=1;" vertex="1" parent="oH5rCl_RlqWV7XKN1rxS-102">
          <mxGeometry width="170" height="100" as="geometry" />
        </mxCell>
        <mxCell id="oH5rCl_RlqWV7XKN1rxS-104" value="" style="rounded=0;whiteSpace=wrap;html=1;" vertex="1" parent="oH5rCl_RlqWV7XKN1rxS-102">
          <mxGeometry width="170" height="50" as="geometry" />
        </mxCell>
        <mxCell id="oH5rCl_RlqWV7XKN1rxS-105" value="" style="endArrow=none;html=1;rounded=0;exitX=0.5;exitY=1;exitDx=0;exitDy=0;entryX=0.5;entryY=1;entryDx=0;entryDy=0;" edge="1" parent="oH5rCl_RlqWV7XKN1rxS-102" source="oH5rCl_RlqWV7XKN1rxS-103" target="oH5rCl_RlqWV7XKN1rxS-104">
          <mxGeometry width="50" height="50" relative="1" as="geometry">
            <mxPoint x="85" y="80" as="sourcePoint" />
            <mxPoint x="85" y="60" as="targetPoint" />
          </mxGeometry>
        </mxCell>
        <mxCell id="oH5rCl_RlqWV7XKN1rxS-106" value="Vérification paiement" style="text;html=1;strokeColor=none;fillColor=none;align=center;verticalAlign=middle;whiteSpace=wrap;rounded=0;" vertex="1" parent="oH5rCl_RlqWV7XKN1rxS-102">
          <mxGeometry width="170" height="50" as="geometry" />
        </mxCell>
        <mxCell id="oH5rCl_RlqWV7XKN1rxS-107" value="Paiement accepté" style="text;html=1;strokeColor=none;fillColor=none;align=center;verticalAlign=middle;whiteSpace=wrap;rounded=0;" vertex="1" parent="oH5rCl_RlqWV7XKN1rxS-102">
          <mxGeometry y="50" width="85" height="50" as="geometry" />
        </mxCell>
        <mxCell id="oH5rCl_RlqWV7XKN1rxS-108" value="Paiement refusé" style="text;html=1;strokeColor=none;fillColor=none;align=center;verticalAlign=middle;whiteSpace=wrap;rounded=0;" vertex="1" parent="oH5rCl_RlqWV7XKN1rxS-102">
          <mxGeometry x="85" y="50" width="85" height="50" as="geometry" />
        </mxCell>
        <mxCell id="oH5rCl_RlqWV7XKN1rxS-109" value="" style="endArrow=classic;html=1;rounded=0;exitX=0.5;exitY=1;exitDx=0;exitDy=0;entryX=0.5;entryY=0;entryDx=0;entryDy=0;" edge="1" parent="1" source="oH5rCl_RlqWV7XKN1rxS-84" target="oH5rCl_RlqWV7XKN1rxS-111">
          <mxGeometry width="50" height="50" relative="1" as="geometry">
            <mxPoint x="217" y="1570" as="sourcePoint" />
            <mxPoint x="250" y="1582" as="targetPoint" />
          </mxGeometry>
        </mxCell>
        <mxCell id="oH5rCl_RlqWV7XKN1rxS-111" value="Ouverture page de paiement par carte" style="ellipse;whiteSpace=wrap;html=1;" vertex="1" parent="1">
          <mxGeometry x="236" y="1700" width="120" height="80" as="geometry" />
        </mxCell>
        <mxCell id="oH5rCl_RlqWV7XKN1rxS-113" value="" style="endArrow=classic;html=1;rounded=0;exitX=0.5;exitY=1;exitDx=0;exitDy=0;entryX=0;entryY=0.5;entryDx=0;entryDy=0;" edge="1" parent="1" source="oH5rCl_RlqWV7XKN1rxS-111" target="oH5rCl_RlqWV7XKN1rxS-100">
          <mxGeometry width="50" height="50" relative="1" as="geometry">
            <mxPoint x="310" y="1640" as="sourcePoint" />
            <mxPoint x="360" y="1590" as="targetPoint" />
          </mxGeometry>
        </mxCell>
        <mxCell id="oH5rCl_RlqWV7XKN1rxS-114" value="Va payer au comptoir" style="ellipse;whiteSpace=wrap;html=1;" vertex="1" parent="1">
          <mxGeometry x="430" y="1800" width="120" height="80" as="geometry" />
        </mxCell>
        <mxCell id="oH5rCl_RlqWV7XKN1rxS-115" value="" style="endArrow=classic;html=1;rounded=0;entryX=0.5;entryY=0;entryDx=0;entryDy=0;exitX=0.5;exitY=1;exitDx=0;exitDy=0;" edge="1" parent="1" source="oH5rCl_RlqWV7XKN1rxS-108" target="oH5rCl_RlqWV7XKN1rxS-86">
          <mxGeometry width="50" height="50" relative="1" as="geometry">
            <mxPoint x="320" y="1640" as="sourcePoint" />
            <mxPoint x="370" y="1590" as="targetPoint" />
            <Array as="points">
              <mxPoint x="338" y="1970" />
              <mxPoint x="590" y="1970" />
              <mxPoint x="590" y="1535" />
            </Array>
          </mxGeometry>
        </mxCell>
        <mxCell id="oH5rCl_RlqWV7XKN1rxS-116" value="" style="endArrow=classic;html=1;rounded=0;entryX=0.5;entryY=0;entryDx=0;entryDy=0;exitX=0.5;exitY=1;exitDx=0;exitDy=0;" edge="1" parent="1" source="oH5rCl_RlqWV7XKN1rxS-94" target="oH5rCl_RlqWV7XKN1rxS-114">
          <mxGeometry width="50" height="50" relative="1" as="geometry">
            <mxPoint x="320" y="1740" as="sourcePoint" />
            <mxPoint x="370" y="1690" as="targetPoint" />
          </mxGeometry>
        </mxCell>
        <mxCell id="oH5rCl_RlqWV7XKN1rxS-117" value="" style="endArrow=classic;html=1;rounded=0;exitX=0.5;exitY=1;exitDx=0;exitDy=0;entryX=0.5;entryY=0;entryDx=0;entryDy=0;" edge="1" parent="1" source="oH5rCl_RlqWV7XKN1rxS-107" target="oH5rCl_RlqWV7XKN1rxS-118">
          <mxGeometry width="50" height="50" relative="1" as="geometry">
            <mxPoint x="320" y="2040" as="sourcePoint" />
            <mxPoint x="253" y="1990" as="targetPoint" />
          </mxGeometry>
        </mxCell>
        <mxCell id="oH5rCl_RlqWV7XKN1rxS-118" value="Commande terminée et transférée en cuisine" style="ellipse;whiteSpace=wrap;html=1;" vertex="1" parent="1">
          <mxGeometry x="236" y="2060" width="120" height="80" as="geometry" />
        </mxCell>
        <mxCell id="oH5rCl_RlqWV7XKN1rxS-119" value="" style="endArrow=classic;html=1;rounded=0;entryX=0.5;entryY=0;entryDx=0;entryDy=0;exitX=0.5;exitY=1;exitDx=0;exitDy=0;" edge="1" parent="1" source="oH5rCl_RlqWV7XKN1rxS-114" target="oH5rCl_RlqWV7XKN1rxS-118">
          <mxGeometry width="50" height="50" relative="1" as="geometry">
            <mxPoint x="320" y="2040" as="sourcePoint" />
            <mxPoint x="370" y="1990" as="targetPoint" />
          </mxGeometry>
        </mxCell>
        <mxCell id="jWbnVODXDdsQWrNIzBra-1" value="" style="group" connectable="0" vertex="1" parent="1">
          <mxGeometry x="158" y="433" width="170" height="100" as="geometry" />
        </mxCell>
        <mxCell id="jWbnVODXDdsQWrNIzBra-2" value="" style="rounded=0;whiteSpace=wrap;html=1;" vertex="1" parent="jWbnVODXDdsQWrNIzBra-1">
          <mxGeometry width="170" height="100" as="geometry" />
        </mxCell>
        <mxCell id="jWbnVODXDdsQWrNIzBra-3" value="" style="rounded=0;whiteSpace=wrap;html=1;" vertex="1" parent="jWbnVODXDdsQWrNIzBra-1">
          <mxGeometry width="170" height="50" as="geometry" />
        </mxCell>
        <mxCell id="jWbnVODXDdsQWrNIzBra-4" value="" style="endArrow=none;html=1;rounded=0;exitX=0.5;exitY=1;exitDx=0;exitDy=0;entryX=0.5;entryY=1;entryDx=0;entryDy=0;" edge="1" parent="jWbnVODXDdsQWrNIzBra-1" source="jWbnVODXDdsQWrNIzBra-2" target="jWbnVODXDdsQWrNIzBra-3">
          <mxGeometry width="50" height="50" relative="1" as="geometry">
            <mxPoint x="85" y="80" as="sourcePoint" />
            <mxPoint x="85" y="60" as="targetPoint" />
          </mxGeometry>
        </mxCell>
        <mxCell id="jWbnVODXDdsQWrNIzBra-5" value="Produit = Pizza" style="text;html=1;strokeColor=none;fillColor=none;align=center;verticalAlign=middle;whiteSpace=wrap;rounded=0;" vertex="1" parent="jWbnVODXDdsQWrNIzBra-1">
          <mxGeometry width="170" height="50" as="geometry" />
        </mxCell>
        <mxCell id="jWbnVODXDdsQWrNIzBra-6" value="Oui" style="text;html=1;strokeColor=none;fillColor=none;align=center;verticalAlign=middle;whiteSpace=wrap;rounded=0;" vertex="1" parent="jWbnVODXDdsQWrNIzBra-1">
          <mxGeometry y="50" width="85" height="50" as="geometry" />
        </mxCell>
        <mxCell id="jWbnVODXDdsQWrNIzBra-7" value="Ne souhaite pas modifier" style="text;html=1;strokeColor=none;fillColor=none;align=center;verticalAlign=middle;whiteSpace=wrap;rounded=0;" vertex="1" parent="jWbnVODXDdsQWrNIzBra-1">
          <mxGeometry x="85" y="50" width="85" height="50" as="geometry" />
        </mxCell>
        <mxCell id="jWbnVODXDdsQWrNIzBra-8" value="" style="triangle;whiteSpace=wrap;html=1;rotation=90;" vertex="1" parent="1">
          <mxGeometry x="228" y="362" width="30" height="110" as="geometry" />
        </mxCell>
        <mxCell id="jWbnVODXDdsQWrNIzBra-9" value="" style="endArrow=classic;html=1;rounded=0;exitX=0.75;exitY=1;exitDx=0;exitDy=0;" edge="1" parent="1" source="jWbnVODXDdsQWrNIzBra-7" target="oH5rCl_RlqWV7XKN1rxS-53">
          <mxGeometry width="50" height="50" relative="1" as="geometry">
            <mxPoint x="230" y="790" as="sourcePoint" />
            <mxPoint x="280" y="740" as="targetPoint" />
          </mxGeometry>
        </mxCell>
        <mxCell id="jWbnVODXDdsQWrNIzBra-10" value="" style="endArrow=classic;html=1;rounded=0;entryX=0;entryY=0.5;entryDx=0;entryDy=0;exitX=0.5;exitY=1;exitDx=0;exitDy=0;" edge="1" parent="1" source="jWbnVODXDdsQWrNIzBra-6" target="oH5rCl_RlqWV7XKN1rxS-25">
          <mxGeometry width="50" height="50" relative="1" as="geometry">
            <mxPoint x="130" y="690" as="sourcePoint" />
            <mxPoint x="180" y="640" as="targetPoint" />
          </mxGeometry>
        </mxCell>
      </root>
    </mxGraphModel>
  </diagram>
</mxfile>
